<?xml version="1.0" encoding="utf-8"?>


<!-- The icon can be used freely in both personal and commercial projects with no attribution required, but always appreciated. 
You may NOT sub-license, resell, rent, redistribute or otherwise transfer the icon without express written permission from iconmonstr.com -->


<!DOCTYPE svg PUBLIC "-//W3C//DTD SVG 1.1//EN" "http://www.w3.org/Graphics/SVG/1.1/DTD/svg11.dtd">

<svg version="1.1" xmlns="http://www.w3.org/2000/svg" xmlns:xlink="http://www.w3.org/1999/xlink" x="0px" y="0px"

	 width="512px" height="512px" viewBox="0 0 512 512" enable-background="new 0 0 512 512" xml:space="preserve">

<path fill="#FFFFFF" id="behance-icon" d="M240.209,151.943c7.829,10.879,11.745,23.897,11.745,39.059c0,15.624-3.952,28.181-11.851,37.67

	c-4.418,5.325-10.92,10.184-19.519,14.582c13.058,4.745,22.914,12.269,29.559,22.568c6.647,10.3,9.97,22.799,9.97,37.496

	c0,15.161-3.8,28.761-11.394,40.796c-4.834,7.987-10.874,14.698-18.121,20.138c-8.172,6.25-17.81,10.532-28.913,12.846

	c-11.105,2.316-23.158,3.471-36.158,3.471H50.234v-255.88h123.659C205.093,125.151,227.199,134.236,240.209,151.943z

	 M101.272,169.128v56.42h62.19c11.109,0,20.13-2.114,27.059-6.337c6.929-4.223,10.394-11.717,10.394-22.479

	c0-11.922-4.581-19.792-13.743-23.61c-7.906-2.662-17.983-3.994-30.239-3.994H101.272z M101.272,267.904v68.223h62.122

	c11.094,0,19.733-1.501,25.913-4.514c11.21-5.553,16.816-16.201,16.816-31.94c0-13.31-5.435-22.452-16.3-27.427

	c-6.067-2.778-14.588-4.224-25.572-4.342H101.272z M412.805,195.183c13.198,5.913,24.103,15.243,32.7,27.994

	c7.747,11.24,12.773,24.278,15.073,39.115c1.333,8.694,1.874,21.213,1.632,37.554H324.396c0.767,18.981,7.364,32.289,19.788,39.926

	c7.557,4.749,16.645,7.12,27.276,7.12c11.271,0,20.427-2.891,27.472-8.681c3.842-3.123,7.237-7.465,10.183-13.014h50.513

	c-1.332,11.219-7.446,22.617-18.34,34.193c-16.952,18.402-40.682,27.603-71.189,27.603c-25.183,0-47.399-7.761-66.648-23.281

	c-19.252-15.522-28.878-40.772-28.878-75.757c0-32.775,8.688-57.912,26.07-75.403c17.374-17.489,39.932-26.238,67.665-26.238

	C384.77,186.314,399.609,189.271,412.805,195.183z M338.79,237.922c-6.993,7.208-11.382,16.968-13.178,29.29h85.235

	c-0.901-13.136-5.292-23.098-13.178-29.898c-7.89-6.802-17.671-10.205-29.349-10.205

	C355.624,227.109,345.783,230.718,338.79,237.922z M420.672,139.389H309.491v25.843h111.181V139.389z"/>

</svg>