<?xml version="1.0" encoding="utf-8"?>
<!-- Generator: Adobe Illustrator 16.0.0, SVG Export Plug-In . SVG Version: 6.00 Build 0)  -->
<!DOCTYPE svg PUBLIC "-//W3C//DTD SVG 1.1//EN" "http://www.w3.org/Graphics/SVG/1.1/DTD/svg11.dtd">
<svg version="1.1" id="Layer_1" xmlns="http://www.w3.org/2000/svg" xmlns:xlink="http://www.w3.org/1999/xlink" x="0px" y="0px"
	 width="791.363px" height="465.131px" viewBox="0 0 791.363 465.131" enable-background="new 0 0 791.363 465.131"
	 xml:space="preserve">
<path fill="#F5F4E9" d="M68.955,33.108c9.983,0,18.895,9.528,18.895,28.586c0,19.05-16.319,23.29-16.319,23.29v31.138
	c24.182,4.545,21.467,24.197,20.262,45.978c-1.221,21.772-22.681,23.58-22.681,23.58H34.024V33.265
	C34.024,33.265,58.973,33.108,68.955,33.108z M100.935,99.453c3.094-1.591,9.007-5.616,13.613-13.717
	c4.462-7.871,7.475-19.972,7.475-37.185C122.022-1.354,73.039,0,73.039,0H0v218.648c0,0,32.432,0.231,75.763,0.231
	c44.222,0,48.766-39.923,48.766-39.923s2.03-11.113,2.03-32.432c0-11.217-1.664-19.295-4.982-25.857
	c-6.228-12.311-16.299-17.763-20.613-19.622L100.935,99.453z"/>
<polygon fill="#F5F4E9" points="0,246.929 33.131,246.929 76.208,333.113 119.314,247.048 154.246,247.048 154.246,465.131 
	120.212,465.131 120.212,324.499 84.381,388.485 67.14,388.485 33.569,324.499 33.569,465.131 0,465.131 "/>
<polygon fill="#F5F4E9" points="187.51,246.998 187.51,465.064 306.355,465.064 306.355,431.801 221.378,431.801 221.378,277.852 
	306.355,277.852 306.355,246.998 "/>
<rect x="251.832" y="341.064" fill="#F5F4E9" width="34.351" height="29.933"/>
<path fill="#F5F4E9" d="M402.371,246.792c53.767,0,51.267,59.895,51.267,59.895s4.076,51.713-0.445,105.241
	c-4.541,53.528-54.451,53.528-56.25,53.528c-1.822,0-68.494-0.001-68.494-0.001V246.792
	C328.448,246.792,364.272,246.792,402.371,246.792z M363.812,280.369v152.417h29.493c0,0,25.865-0.447,25.865-32.195
	c0-31.747,0-89.828,0-89.828s0.445-30.394-27.219-30.394C377.884,280.369,363.812,280.369,363.812,280.369z"/>
<rect x="484.791" y="246.712" fill="#F5F4E9" width="33.266" height="218.419"/>
<polygon fill="#F5F4E9" points="544.06,463.859 603.332,247.31 642.058,247.31 701.921,465.049 635.406,465.049 635.406,435.416 
	657.169,435.416 623.296,296.298 579.751,463.859 "/>
<path fill="#F5F4E9" d="M151.968,0.602v218.357h33.275V33.875h30.236c0,0,29.032-3.027,30.229,29.635
	c1.229,32.663-25.543,33.116-25.543,33.116v53.833l30.99,69.096h40.524l-46.564-97.377c0,0,31.441-10.89,33.264-44.758
	c1.333-24.979,1.511-50.203-18.894-66.084c-6.583-5.103-15.003-10.124-27.062-10.124C207.616,1.212,151.968,0.602,151.968,0.602z"/>
<rect x="304.854" y="-0.455" fill="#F5F4E9" width="34.923" height="219.555"/>
<rect x="523.799" y="-0.455" fill="#F5F4E9" width="34.932" height="219.555"/>
<polygon fill="#F5F4E9" points="618.76,119.984 618.76,219.1 653.674,219.1 653.674,-0.455 618.76,-0.455 618.76,90.734 
	589.051,90.734 589.051,119.768 "/>
<polygon fill="#F5F4E9" points="677.271,-0.455 791.363,-0.455 791.363,33.57 740.171,33.339 740.171,219.1 705.269,219.1 
	705.269,33.339 677.271,33.57 "/>
<path fill="#F5F4E9" d="M494.908,73.485h-33.564c0,0,3.188-34.471-19.503-39.009c-22.687-4.537-37.207,10.429-37.207,24.943
	c0,14.521,0,98.442,0,98.442s-1.339,29.939,27.672,29.939c29.038,0,29.038-29.479,29.038-34.017c0-4.545,0-20.411,0-20.411h-21.777
	v-29.039h54.897v52.619c0,0,6.337,64.417-59.421,64.417c-65.778,0-65.324-60.333-65.324-60.333V61.695c0,0-2.27-60.795,53.974-61.25
	c13.612-0.104,20.871,0,20.871,0c11.337,0.916,48.991,5.453,50.345,55.812C495.385,73.931,494.908,73.485,494.908,73.485z"/>
</svg>
